<svg xmlns="http://www.w3.org/2000/svg" xmlns:xlink="http://www.w3.org/1999/xlink" preserveAspectRatio="xMidYMid meet" viewBox="10.74 104.07 353.82 166.5"><defs><g></g><clipPath id="c9ad54c973"><path d="M 10.738281 148 L 169.738281 148 L 169.738281 270.574219 L 10.738281 270.574219 Z M 10.738281 148 " clip-rule="nonzero"></path></clipPath><clipPath id="ed5d4c1354"><path d="M 35 104.074219 L 169.738281 104.074219 L 169.738281 229 L 35 229 Z M 35 104.074219 " clip-rule="nonzero"></path></clipPath><clipPath id="6c51063812"><path d="M 323.421875 157.679688 L 364.558594 157.679688 L 364.558594 187.976562 L 323.421875 187.976562 Z M 323.421875 157.679688 " clip-rule="nonzero"></path></clipPath><clipPath id="7b18301890"><path d="M 333.992188 170.792969 L 346.527344 170.792969 L 346.527344 219.175781 L 333.992188 219.175781 Z M 333.992188 170.792969 " clip-rule="nonzero"></path></clipPath></defs><g clip-path="url(#c9ad54c973)"><path fill="#225aa5" d="M 83.132812 239.1875 C 81.804688 242.152344 78.308594 243.484375 75.339844 242.15625 C 75.21875 242.101562 75.09375 242.046875 74.980469 241.996094 C 75.085938 242.042969 75.199219 242.09375 75.339844 242.15625 C 72.371094 240.828125 71.035156 237.339844 72.363281 234.371094 C 73.695312 231.40625 77.191406 230.074219 80.160156 231.402344 C 83.128906 232.730469 84.460938 236.21875 83.132812 239.1875 Z M 121.179688 224.421875 L 119.601562 225.472656 C 112.054688 230.511719 103.246094 233.175781 94.132812 233.175781 C 91.925781 233.175781 89.738281 233.011719 87.582031 232.703125 C 86.574219 230.28125 84.679688 228.222656 82.097656 227.070312 C 76.742188 224.671875 70.425781 227.082031 68.027344 232.433594 C 65.628906 237.789062 68.039062 244.09375 73.398438 246.492188 C 77.257812 248.214844 81.605469 247.453125 84.636719 244.890625 C 87.761719 245.402344 90.933594 245.664062 94.132812 245.664062 C 105.078125 245.664062 115.675781 242.640625 124.914062 236.910156 L 144.671875 236.910156 C 131.460938 250.339844 113.3125 258.082031 94.132812 258.082031 C 55.070312 258.082031 23.289062 226.339844 23.289062 187.324219 C 23.289062 180.066406 24.367188 172.976562 26.507812 166.167969 C 28.605469 165.34375 30.421875 163.777344 31.503906 161.597656 C 33.804688 156.953125 31.894531 151.320312 27.242188 149.023438 C 22.585938 146.722656 16.945312 148.628906 14.644531 153.277344 C 13.257812 156.089844 13.410156 159.253906 14.773438 161.828125 C 12.128906 170.027344 10.789062 178.574219 10.789062 187.324219 C 10.789062 233.226562 48.175781 270.570312 94.132812 270.570312 C 121.707031 270.570312 147.460938 256.96875 163.027344 234.183594 L 169.691406 224.421875 L 121.179688 224.421875 " fill-opacity="1" fill-rule="nonzero"></path></g><path fill="#00cc99" d="M 45.589844 114.347656 C 44.417969 115.230469 43.25 116.113281 45.589844 114.347656 " fill-opacity="1" fill-rule="nonzero"></path><g clip-path="url(#ed5d4c1354)"><path fill="#00cc99" d="M 55.398438 127.3125 C 52.925781 129.175781 49.398438 128.683594 47.53125 126.21875 C 45.664062 123.746094 46.152344 120.222656 48.625 118.359375 C 51.097656 116.492188 54.625 116.984375 56.492188 119.457031 C 58.359375 121.921875 57.867188 125.449219 55.398438 127.3125 Z M 163.027344 140.46875 C 147.460938 117.683594 121.707031 104.082031 94.132812 104.082031 C 80.882812 104.082031 67.984375 107.1875 56.332031 113.117188 C 52.910156 111.605469 48.785156 111.9375 45.59375 114.347656 C 46.210938 113.878906 46.828125 113.414062 46.925781 113.339844 C 46.84375 113.402344 46.457031 113.691406 45.59375 114.347656 L 45.589844 114.347656 C 40.90625 117.886719 39.972656 124.566406 43.511719 129.246094 C 47.050781 133.929688 53.746094 134.859375 58.429688 131.324219 C 60.875 129.484375 62.285156 126.785156 62.589844 123.964844 C 72.335938 119.113281 83.085938 116.570312 94.132812 116.570312 C 113.3125 116.570312 131.460938 124.3125 144.671875 137.742188 L 124.914062 137.742188 C 115.675781 132.011719 105.078125 128.988281 94.132812 128.988281 C 61.925781 128.988281 35.726562 155.160156 35.726562 187.324219 C 35.726562 197.789062 38.441406 207.785156 43.625 216.644531 C 42.863281 219.613281 43.570312 222.894531 45.796875 225.324219 C 49.304688 229.148438 55.253906 229.40625 59.078125 225.902344 C 62.90625 222.398438 63.164062 216.457031 59.65625 212.636719 C 58.125 210.964844 56.125 209.976562 54.042969 209.683594 C 50.226562 202.894531 48.226562 195.285156 48.226562 187.324219 C 48.226562 162.046875 68.820312 141.476562 94.132812 141.476562 C 103.246094 141.476562 112.054688 144.140625 119.601562 149.179688 L 121.179688 150.230469 L 169.691406 150.230469 L 163.027344 140.46875 " fill-opacity="1" fill-rule="nonzero"></path></g><path fill="#231f20" d="M 347.910156 170.878906 C 347.910156 171.953125 347.035156 172.820312 345.953125 172.820312 C 344.871094 172.820312 343.992188 171.953125 343.992188 170.878906 C 343.992188 169.808594 344.871094 168.941406 345.953125 168.941406 C 347.035156 168.941406 347.910156 169.808594 347.910156 170.878906 " fill-opacity="1" fill-rule="nonzero"></path><g clip-path="url(#6c51063812)"><path fill="#231f20" d="M 346.460938 170.054688 C 346.460938 170.054688 347.988281 175.511719 344.417969 179.628906 C 344.417969 179.628906 348.105469 177.90625 349.074219 174.839844 C 349.074219 174.839844 353.136719 180.585938 350.234375 187.960938 C 350.234375 187.960938 357.300781 182.117188 353.527344 173.882812 C 353.527344 173.882812 360.589844 178.671875 360.492188 185.660156 C 360.492188 185.660156 365.625 173.5 350.523438 168.328125 C 350.523438 168.328125 359.625 169.382812 364.558594 174.648438 C 364.558594 174.648438 361.269531 165.265625 351.589844 165.457031 C 351.589844 165.457031 354.105469 162.777344 357.492188 162.96875 C 357.492188 162.96875 352.171875 161.53125 348.589844 164.976562 C 348.589844 164.976562 345.878906 154.828125 331.941406 158.46875 C 331.941406 158.46875 342.078125 160.449219 344.417969 166.222656 C 344.417969 166.222656 330.390625 157.699219 326.425781 168.519531 C 326.425781 168.519531 332.230469 165.265625 339.589844 167.5625 C 339.589844 167.5625 327.101562 168.617188 323.421875 178.191406 C 323.421875 178.191406 327.34375 174.851562 333.34375 173.789062 C 339.5625 172.6875 345.203125 169.765625 345.203125 169.765625 L 346.460938 170.054688 " fill-opacity="1" fill-rule="nonzero"></path></g><g clip-path="url(#7b18301890)"><path fill="#231f20" d="M 346.449219 171.277344 C 346.242188 171.496094 346.03125 171.722656 345.820312 171.957031 C 345.613281 172.1875 345.40625 172.425781 345.203125 172.671875 C 344.453125 173.558594 343.714844 174.546875 343.007812 175.617188 C 342.117188 176.988281 341.265625 178.488281 340.53125 180.105469 C 339.789062 181.71875 339.148438 183.441406 338.621094 185.222656 C 338.363281 186.113281 338.132812 187.019531 337.929688 187.933594 C 337.835938 188.394531 337.734375 188.855469 337.660156 189.308594 C 337.617188 189.535156 337.574219 189.757812 337.539062 190 L 337.429688 190.703125 C 337.175781 192.570312 337.023438 194.445312 336.957031 196.296875 C 336.917969 198.148438 336.949219 199.976562 337.054688 201.738281 C 337.179688 203.503906 337.328125 205.210938 337.546875 206.820312 C 337.636719 207.628906 337.761719 208.414062 337.871094 209.167969 C 337.984375 209.925781 338.109375 210.660156 338.222656 211.359375 C 338.351562 212.0625 338.472656 212.734375 338.585938 213.375 C 338.710938 214.015625 338.828125 214.621094 338.941406 215.1875 C 339.171875 216.332031 339.375 217.324219 339.550781 218.136719 C 339.636719 218.523438 339.710938 218.871094 339.78125 219.175781 L 335.375 219.175781 C 335.363281 219.078125 335.347656 218.976562 335.332031 218.875 C 335.214844 218.027344 335.078125 217.003906 334.925781 215.824219 C 334.855469 215.234375 334.78125 214.605469 334.703125 213.945312 C 334.632812 213.28125 334.558594 212.582031 334.480469 211.851562 C 334.414062 211.121094 334.339844 210.359375 334.28125 209.570312 C 334.226562 208.78125 334.152344 207.964844 334.117188 207.121094 C 334.015625 205.441406 333.988281 203.65625 333.996094 201.8125 C 334.019531 199.964844 334.125 198.054688 334.308594 196.121094 C 334.515625 194.191406 334.816406 192.238281 335.226562 190.308594 L 335.390625 189.59375 C 335.445312 189.359375 335.507812 189.113281 335.570312 188.871094 C 335.691406 188.382812 335.828125 187.914062 335.964844 187.441406 C 336.246094 186.496094 336.550781 185.566406 336.894531 184.65625 C 337.578125 182.835938 338.371094 181.097656 339.265625 179.480469 C 340.148438 177.859375 341.140625 176.371094 342.160156 175.027344 C 342.941406 174.007812 343.75 173.078125 344.554688 172.242188 C 344.808594 171.976562 345.0625 171.722656 345.316406 171.480469 C 345.5 171.300781 345.683594 171.128906 345.867188 170.960938 C 346.054688 171.085938 346.25 171.191406 346.449219 171.277344 " fill-opacity="1" fill-rule="nonzero"></path></g><g fill="#001217" fill-opacity="1"><g transform="translate(75.169197, 190.237559)"><g><path d="M 10.808594 0 L 24.957031 0 C 26.277344 0 27.285156 -1.007812 27.285156 -2.328125 L 27.285156 -3.960938 C 27.285156 -5.285156 26.277344 -6.292969 24.957031 -6.292969 L 12.167969 -6.292969 C 10.914062 -6.292969 9.90625 -7.300781 9.90625 -8.585938 L 9.90625 -19.222656 C 9.90625 -20.507812 10.914062 -21.515625 12.167969 -21.515625 L 24.957031 -21.515625 C 26.242188 -21.515625 27.285156 -22.488281 27.285156 -23.8125 L 27.285156 -25.480469 C 27.285156 -26.800781 26.277344 -27.808594 24.957031 -27.808594 L 10.808594 -27.808594 C 5.875 -27.808594 2.292969 -24.226562 2.292969 -19.292969 L 2.292969 -8.515625 C 2.292969 -3.582031 5.875 0 10.808594 0 Z M 10.808594 0 "></path></g></g></g><g fill="#001217" fill-opacity="1"><g transform="translate(104.74234, 190.237559)"><g><path d="M 4.625 0 L 7.578125 0 C 8.898438 0 9.90625 -1.007812 9.90625 -2.328125 L 9.90625 -6.429688 C 9.90625 -7.714844 10.914062 -8.726562 12.167969 -8.726562 C 13.453125 -8.726562 14.460938 -7.714844 14.460938 -6.464844 L 14.460938 -2.328125 C 14.460938 -1.007812 15.46875 0 16.789062 0 L 19.742188 0 C 21.066406 0 22.074219 -1.007812 22.074219 -2.328125 L 22.074219 -19.292969 C 22.074219 -24.226562 18.492188 -27.808594 13.554688 -27.808594 L 10.808594 -27.808594 C 5.875 -27.808594 2.292969 -24.226562 2.292969 -19.292969 L 2.292969 -2.328125 C 2.292969 -1.007812 3.300781 0 4.625 0 Z M 12.167969 -13.3125 C 10.914062 -13.3125 9.90625 -14.320312 9.90625 -15.574219 L 9.90625 -19.222656 C 9.90625 -20.507812 10.914062 -21.515625 12.167969 -21.515625 C 13.453125 -21.515625 14.460938 -20.507812 14.460938 -19.222656 L 14.460938 -15.574219 C 14.460938 -14.320312 13.453125 -13.3125 12.167969 -13.3125 Z M 12.167969 -13.3125 "></path></g></g></g><g fill="#001217" fill-opacity="1"><g transform="translate(129.102825, 190.237559)"><g><path d="M 4.625 0 L 7.578125 0 C 8.898438 0 9.90625 -1.007812 9.90625 -2.328125 L 9.90625 -8.621094 C 9.90625 -9.871094 10.914062 -10.878906 12.167969 -10.878906 L 17.378906 -10.878906 C 18.667969 -10.878906 19.675781 -9.871094 19.675781 -8.621094 L 19.675781 -2.328125 C 19.675781 -1.007812 20.683594 0 22.003906 0 L 24.957031 0 C 26.277344 0 27.285156 -1.007812 27.285156 -2.328125 L 27.285156 -9.488281 C 27.285156 -10.742188 26.382812 -11.609375 25.132812 -11.609375 L 24.820312 -11.609375 C 23.566406 -11.609375 22.558594 -12.617188 22.558594 -13.902344 C 22.558594 -15.191406 23.566406 -16.199219 24.820312 -16.199219 L 24.886719 -16.199219 C 26.277344 -16.199219 27.285156 -17.207031 27.285156 -18.597656 L 27.285156 -20.71875 C 27.285156 -24.820312 24.296875 -27.808594 20.195312 -27.808594 L 4.625 -27.808594 C 3.300781 -27.808594 2.292969 -26.800781 2.292969 -25.480469 L 2.292969 -2.328125 C 2.292969 -1.007812 3.300781 0 4.625 0 Z M 12.167969 -16.964844 C 10.914062 -16.964844 9.90625 -17.972656 9.90625 -19.222656 C 9.90625 -20.507812 10.914062 -21.515625 12.167969 -21.515625 L 17.378906 -21.515625 C 18.667969 -21.515625 19.675781 -20.507812 19.675781 -19.222656 C 19.675781 -17.972656 18.667969 -16.964844 17.378906 -16.964844 Z M 12.167969 -16.964844 "></path></g></g></g><g fill="#001217" fill-opacity="1"><g transform="translate(158.675967, 190.237559)"><g><path d="M 4.625 0 L 7.578125 0 C 8.898438 0 9.90625 -1.007812 9.90625 -2.328125 L 9.90625 -25.480469 C 9.90625 -26.800781 8.898438 -27.808594 7.578125 -27.808594 L 4.625 -27.808594 C 3.300781 -27.808594 2.292969 -26.800781 2.292969 -25.480469 L 2.292969 -2.328125 C 2.292969 -1.007812 3.300781 0 4.625 0 Z M 4.625 0 "></path></g></g></g><g fill="#001217" fill-opacity="1"><g transform="translate(170.873586, 190.237559)"><g><path d="M 4.625 0 L 20.195312 0 C 24.296875 0 27.285156 -2.988281 27.285156 -7.089844 L 27.285156 -9.210938 C 27.285156 -10.601562 26.277344 -11.609375 24.886719 -11.609375 L 24.820312 -11.609375 C 23.566406 -11.609375 22.558594 -12.617188 22.558594 -13.902344 C 22.558594 -15.191406 23.566406 -16.199219 24.820312 -16.199219 L 24.886719 -16.199219 C 26.277344 -16.199219 27.285156 -17.207031 27.285156 -18.597656 L 27.285156 -20.71875 C 27.285156 -24.820312 24.296875 -27.808594 20.195312 -27.808594 L 4.625 -27.808594 C 3.300781 -27.808594 2.292969 -26.800781 2.292969 -25.480469 L 2.292969 -2.328125 C 2.292969 -1.007812 3.300781 0 4.625 0 Z M 12.167969 -16.964844 C 10.914062 -16.964844 9.90625 -17.972656 9.90625 -19.222656 C 9.90625 -20.507812 10.914062 -21.515625 12.167969 -21.515625 L 17.378906 -21.515625 C 18.667969 -21.515625 19.675781 -20.507812 19.675781 -19.222656 C 19.675781 -17.972656 18.667969 -16.964844 17.378906 -16.964844 Z M 12.167969 -6.292969 C 10.914062 -6.292969 9.90625 -7.300781 9.90625 -8.585938 C 9.90625 -9.835938 10.914062 -10.878906 12.167969 -10.878906 L 17.378906 -10.878906 C 18.667969 -10.878906 19.675781 -9.835938 19.675781 -8.585938 C 19.675781 -7.300781 18.667969 -6.292969 17.378906 -6.292969 Z M 12.167969 -6.292969 "></path></g></g></g><g fill="#001217" fill-opacity="1"><g transform="translate(200.446728, 190.237559)"><g><path d="M 4.625 0 L 20.195312 0 C 24.296875 0 27.285156 -2.988281 27.285156 -7.089844 L 27.285156 -9.210938 C 27.285156 -10.601562 26.277344 -11.609375 24.886719 -11.609375 L 24.820312 -11.609375 C 23.566406 -11.609375 22.558594 -12.617188 22.558594 -13.902344 C 22.558594 -15.191406 23.566406 -16.199219 24.820312 -16.199219 L 24.886719 -16.199219 C 26.277344 -16.199219 27.285156 -17.207031 27.285156 -18.597656 L 27.285156 -20.71875 C 27.285156 -24.820312 24.296875 -27.808594 20.195312 -27.808594 L 4.625 -27.808594 C 3.300781 -27.808594 2.292969 -26.800781 2.292969 -25.480469 L 2.292969 -2.328125 C 2.292969 -1.007812 3.300781 0 4.625 0 Z M 12.167969 -16.964844 C 10.914062 -16.964844 9.90625 -17.972656 9.90625 -19.222656 C 9.90625 -20.507812 10.914062 -21.515625 12.167969 -21.515625 L 17.378906 -21.515625 C 18.667969 -21.515625 19.675781 -20.507812 19.675781 -19.222656 C 19.675781 -17.972656 18.667969 -16.964844 17.378906 -16.964844 Z M 12.167969 -6.292969 C 10.914062 -6.292969 9.90625 -7.300781 9.90625 -8.585938 C 9.90625 -9.835938 10.914062 -10.878906 12.167969 -10.878906 L 17.378906 -10.878906 C 18.667969 -10.878906 19.675781 -9.835938 19.675781 -8.585938 C 19.675781 -7.300781 18.667969 -6.292969 17.378906 -6.292969 Z M 12.167969 -6.292969 "></path></g></g></g><g fill="#001217" fill-opacity="1"><g transform="translate(230.01987, 190.237559)"><g><path d="M 4.625 0 L 24.992188 0 C 26.3125 0 27.320312 -1.007812 27.320312 -2.328125 L 27.320312 -3.960938 C 27.320312 -5.285156 26.3125 -6.292969 24.992188 -6.292969 L 12.167969 -6.292969 C 10.914062 -6.292969 9.90625 -7.300781 9.90625 -8.585938 C 9.90625 -9.835938 10.914062 -10.878906 12.167969 -10.878906 L 23.601562 -10.878906 C 24.886719 -10.878906 25.929688 -11.886719 25.929688 -13.242188 L 25.929688 -14.632812 C 25.929688 -15.953125 24.921875 -16.964844 23.601562 -16.964844 L 12.167969 -16.964844 C 10.914062 -16.964844 9.90625 -17.972656 9.90625 -19.222656 C 9.90625 -20.507812 10.914062 -21.515625 12.167969 -21.515625 L 24.992188 -21.515625 C 26.3125 -21.515625 27.320312 -22.523438 27.320312 -23.84375 L 27.320312 -25.480469 C 27.320312 -26.800781 26.3125 -27.808594 24.992188 -27.808594 L 4.625 -27.808594 C 3.300781 -27.808594 2.292969 -26.800781 2.292969 -25.480469 L 2.292969 -2.328125 C 2.292969 -1.007812 3.300781 0 4.625 0 Z M 4.625 0 "></path></g></g></g><g fill="#001217" fill-opacity="1"><g transform="translate(259.627764, 190.237559)"><g><path d="M 4.625 0 L 7.578125 0 C 8.898438 0 9.90625 -1.007812 9.90625 -2.328125 L 9.90625 -6.429688 C 9.90625 -7.714844 10.914062 -8.726562 12.167969 -8.726562 C 13.453125 -8.726562 14.460938 -7.714844 14.460938 -6.464844 L 14.460938 -2.328125 C 14.460938 -1.007812 15.46875 0 16.789062 0 L 19.742188 0 C 21.066406 0 22.074219 -1.007812 22.074219 -2.328125 L 22.074219 -19.292969 C 22.074219 -24.226562 18.492188 -27.808594 13.554688 -27.808594 L 10.808594 -27.808594 C 5.875 -27.808594 2.292969 -24.226562 2.292969 -19.292969 L 2.292969 -2.328125 C 2.292969 -1.007812 3.300781 0 4.625 0 Z M 12.167969 -13.3125 C 10.914062 -13.3125 9.90625 -14.320312 9.90625 -15.574219 L 9.90625 -19.222656 C 9.90625 -20.507812 10.914062 -21.515625 12.167969 -21.515625 C 13.453125 -21.515625 14.460938 -20.507812 14.460938 -19.222656 L 14.460938 -15.574219 C 14.460938 -14.320312 13.453125 -13.3125 12.167969 -13.3125 Z M 12.167969 -13.3125 "></path></g></g></g><g fill="#001217" fill-opacity="1"><g transform="translate(283.988249, 190.237559)"><g><path d="M 4.625 0 L 7.578125 0 C 8.898438 0 9.90625 -1.007812 9.90625 -2.328125 L 9.90625 -19.257812 C 9.90625 -20.507812 10.914062 -21.515625 12.167969 -21.515625 C 13.453125 -21.515625 14.460938 -20.507812 14.460938 -19.257812 L 14.460938 -2.363281 C 14.460938 -1.042969 15.46875 0 16.789062 0 L 30.867188 0 C 32.1875 0 33.195312 -1.007812 33.195312 -2.328125 L 33.195312 -25.480469 C 33.195312 -26.800781 32.1875 -27.808594 30.867188 -27.808594 L 27.914062 -27.808594 C 26.589844 -27.808594 25.582031 -26.800781 25.582031 -25.480469 L 25.582031 -8.585938 C 25.582031 -7.300781 24.574219 -6.292969 23.289062 -6.292969 C 22.039062 -6.292969 21.03125 -7.300781 21.03125 -8.585938 L 21.03125 -25.445312 C 21.03125 -26.730469 20.023438 -27.808594 18.699219 -27.808594 L 4.625 -27.808594 C 3.300781 -27.808594 2.292969 -26.800781 2.292969 -25.480469 L 2.292969 -2.328125 C 2.292969 -1.007812 3.300781 0 4.625 0 Z M 4.625 0 "></path></g></g></g><g fill="#000000" fill-opacity="1"><g transform="translate(81.537582, 216.198501)"><g><path d="M 12.605469 -11.074219 L -0.0546875 -11.074219 L -0.0546875 -9.265625 L 5.332031 -9.265625 L 5.332031 0 L 7.214844 0 L 7.214844 -9.265625 L 12.605469 -9.265625 Z M 12.605469 -11.074219 "></path></g></g></g><g fill="#000000" fill-opacity="1"><g transform="translate(99.900164, 216.198501)"><g><path d="M 7.457031 0.183594 C 11.535156 0.183594 13.417969 -1.402344 13.472656 -3.304688 L 11.589844 -3.304688 C 11.367188 -2.175781 10.410156 -1.402344 7.457031 -1.402344 C 4.667969 -1.402344 3.285156 -2.34375 3.136719 -3.914062 C 4.484375 -3.726562 6.625 -3.5625 7.640625 -3.5625 C 9.558594 -3.5625 13.304688 -3.988281 13.304688 -6.386719 L 13.304688 -6.625 C 13.304688 -8.472656 11.164062 -9.394531 7.660156 -9.394531 C 2.730469 -9.394531 1.292969 -7.417969 1.292969 -4.945312 L 1.292969 -4.261719 C 1.292969 -1.84375 2.824219 0.183594 7.457031 0.183594 Z M 7.660156 -5.242188 C 6.753906 -5.242188 4.613281 -5.351562 3.175781 -5.554688 C 3.175781 -6.753906 4.171875 -7.75 7.660156 -7.75 C 10.90625 -7.75 11.425781 -7.234375 11.425781 -6.589844 L 11.425781 -6.570312 C 11.425781 -5.832031 11.164062 -5.242188 7.660156 -5.242188 Z M 7.660156 -5.242188 "></path></g></g></g><g fill="#000000" fill-opacity="1"><g transform="translate(120.495382, 216.198501)"><g><path d="M 13.953125 -3.597656 L 12.070312 -3.597656 C 11.828125 -2.066406 10.242188 -1.476562 7.640625 -1.476562 C 4.632812 -1.476562 3.175781 -2.195312 3.175781 -4.261719 L 3.175781 -4.945312 C 3.175781 -7.011719 4.6875 -7.75 7.640625 -7.75 C 10.222656 -7.75 11.664062 -7.328125 12.03125 -5.980469 L 13.914062 -5.980469 C 13.507812 -8.324219 11.292969 -9.394531 7.640625 -9.394531 C 3.5625 -9.394531 1.292969 -7.878906 1.292969 -4.945312 L 1.292969 -4.261719 C 1.292969 -1.292969 3.5625 0.183594 7.640625 0.183594 C 11.425781 0.183594 13.710938 -1.144531 13.953125 -3.597656 Z M 13.953125 -3.597656 "></path></g></g></g><g fill="#000000" fill-opacity="1"><g transform="translate(141.588801, 216.198501)"><g><path d="M 9.28125 -9.394531 C 7.070312 -9.394531 5.019531 -8.433594 3.820312 -6.792969 L 3.820312 -12.179688 L 1.976562 -12.179688 L 1.976562 0 L 3.820312 0 L 3.820312 -3.25 C 3.820312 -5.316406 6.070312 -7.75 9.246094 -7.75 C 11.515625 -7.75 13.195312 -6.828125 13.195312 -4.355469 L 13.195312 0 L 15.078125 0 L 15.078125 -4.742188 C 15.078125 -8.027344 12.808594 -9.394531 9.28125 -9.394531 Z M 9.28125 -9.394531 "></path></g></g></g><g fill="#000000" fill-opacity="1"><g transform="translate(164.269047, 216.198501)"><g></g></g></g><g fill="#000000" fill-opacity="1"><g transform="translate(177.483632, 216.198501)"><g><path d="M 8.96875 0.183594 C 13.96875 0.183594 15.980469 -1.808594 16.351562 -4.152344 L 14.304688 -4.152344 C 13.898438 -2.714844 12.382812 -1.660156 8.96875 -1.660156 C 4.964844 -1.660156 3.394531 -3.175781 3.394531 -5.371094 L 3.394531 -5.757812 C 3.394531 -7.953125 4.964844 -9.46875 8.96875 -9.46875 C 12.03125 -9.46875 14.101562 -8.378906 14.320312 -7.085938 L 16.371094 -7.085938 C 16.203125 -9.300781 13.621094 -11.3125 8.96875 -11.3125 C 3.265625 -11.3125 1.476562 -8.675781 1.476562 -5.757812 L 1.476562 -5.371094 C 1.476562 -2.453125 3.265625 0.183594 8.96875 0.183594 Z M 8.96875 0.183594 "></path></g></g></g><g fill="#000000" fill-opacity="1"><g transform="translate(201.215627, 216.198501)"><g><path d="M 7.640625 0.183594 C 11.71875 0.183594 13.988281 -1.367188 13.988281 -4.375 L 13.988281 -4.964844 C 13.988281 -8.027344 11.71875 -9.394531 7.640625 -9.394531 C 3.5625 -9.394531 1.292969 -8.007812 1.292969 -4.910156 L 1.292969 -4.300781 C 1.292969 -1.292969 3.5625 0.183594 7.640625 0.183594 Z M 7.640625 -1.511719 C 4.632812 -1.511719 3.175781 -2.195312 3.175781 -4.300781 L 3.175781 -4.910156 C 3.175781 -7.011719 4.6875 -7.695312 7.640625 -7.695312 C 10.742188 -7.695312 12.105469 -7.105469 12.105469 -4.964844 L 12.105469 -4.375 C 12.105469 -2.234375 10.6875 -1.511719 7.640625 -1.511719 Z M 7.640625 -1.511719 "></path></g></g></g><g fill="#000000" fill-opacity="1"><g transform="translate(222.327483, 216.198501)"><g><path d="M 9.28125 -9.394531 C 7.070312 -9.394531 5.019531 -8.433594 3.820312 -6.792969 L 3.820312 -9.226562 L 1.976562 -9.226562 L 1.976562 0 L 3.820312 0 L 3.820312 -3.25 C 3.820312 -5.316406 6.070312 -7.75 9.246094 -7.75 C 11.515625 -7.75 13.195312 -6.828125 13.195312 -4.355469 L 13.195312 0 L 15.078125 0 L 15.078125 -4.742188 C 15.078125 -8.027344 12.808594 -9.394531 9.28125 -9.394531 Z M 9.28125 -9.394531 "></path></g></g></g><g fill="#000000" fill-opacity="1"><g transform="translate(245.007736, 216.198501)"><g><path d="M 9.28125 -9.394531 C 7.070312 -9.394531 5.019531 -8.433594 3.820312 -6.792969 L 3.820312 -9.226562 L 1.976562 -9.226562 L 1.976562 0 L 3.820312 0 L 3.820312 -3.25 C 3.820312 -5.316406 6.070312 -7.75 9.246094 -7.75 C 11.515625 -7.75 13.195312 -6.828125 13.195312 -4.355469 L 13.195312 0 L 15.078125 0 L 15.078125 -4.742188 C 15.078125 -8.027344 12.808594 -9.394531 9.28125 -9.394531 Z M 9.28125 -9.394531 "></path></g></g></g><g fill="#000000" fill-opacity="1"><g transform="translate(267.687989, 216.198501)"><g><path d="M 7.457031 0.183594 C 11.535156 0.183594 13.417969 -1.402344 13.472656 -3.304688 L 11.589844 -3.304688 C 11.367188 -2.175781 10.410156 -1.402344 7.457031 -1.402344 C 4.667969 -1.402344 3.285156 -2.34375 3.136719 -3.914062 C 4.484375 -3.726562 6.625 -3.5625 7.640625 -3.5625 C 9.558594 -3.5625 13.304688 -3.988281 13.304688 -6.386719 L 13.304688 -6.625 C 13.304688 -8.472656 11.164062 -9.394531 7.660156 -9.394531 C 2.730469 -9.394531 1.292969 -7.417969 1.292969 -4.945312 L 1.292969 -4.261719 C 1.292969 -1.84375 2.824219 0.183594 7.457031 0.183594 Z M 7.660156 -5.242188 C 6.753906 -5.242188 4.613281 -5.351562 3.175781 -5.554688 C 3.175781 -6.753906 4.171875 -7.75 7.660156 -7.75 C 10.90625 -7.75 11.425781 -7.234375 11.425781 -6.589844 L 11.425781 -6.570312 C 11.425781 -5.832031 11.164062 -5.242188 7.660156 -5.242188 Z M 7.660156 -5.242188 "></path></g></g></g><g fill="#000000" fill-opacity="1"><g transform="translate(288.283213, 216.198501)"><g><path d="M 13.953125 -3.597656 L 12.070312 -3.597656 C 11.828125 -2.066406 10.242188 -1.476562 7.640625 -1.476562 C 4.632812 -1.476562 3.175781 -2.195312 3.175781 -4.261719 L 3.175781 -4.945312 C 3.175781 -7.011719 4.6875 -7.75 7.640625 -7.75 C 10.222656 -7.75 11.664062 -7.328125 12.03125 -5.980469 L 13.914062 -5.980469 C 13.507812 -8.324219 11.292969 -9.394531 7.640625 -9.394531 C 3.5625 -9.394531 1.292969 -7.878906 1.292969 -4.945312 L 1.292969 -4.261719 C 1.292969 -1.292969 3.5625 0.183594 7.640625 0.183594 C 11.425781 0.183594 13.710938 -1.144531 13.953125 -3.597656 Z M 13.953125 -3.597656 "></path></g></g></g><g fill="#000000" fill-opacity="1"><g transform="translate(309.376635, 216.198501)"><g><path d="M 6.996094 -1.585938 C 6.605469 -1.511719 6.128906 -1.457031 5.535156 -1.457031 C 4.652344 -1.457031 3.691406 -1.882812 3.691406 -3.175781 L 3.691406 -7.566406 L 7.125 -7.566406 L 7.125 -9.226562 L 3.691406 -9.226562 L 3.691406 -11.074219 L 1.84375 -11.074219 L 1.84375 -9.226562 L 0.664062 -9.226562 L 0.664062 -7.566406 L 1.84375 -7.566406 L 1.84375 -3.175781 C 1.84375 -1.992188 2.140625 0.183594 5.5 0.183594 C 6.164062 0.183594 6.792969 0.0742188 7.402344 -0.148438 Z M 6.996094 -1.585938 "></path></g></g></g></svg>